<svg width="411" height="411" viewBox="0 0 411 411" fill="none" xmlns="http://www.w3.org/2000/svg">
<path d="M205.5 20.5498C307.645 20.5498 390.45 103.355 390.45 205.5C390.45 307.645 307.645 390.45 205.5 390.45C103.355 390.45 20.5498 307.645 20.5498 205.5C20.5498 103.355 103.355 20.5498 205.5 20.5498ZM205.5 41.0996C200.96 41.0996 197.28 44.7805 197.28 49.3203V123.707C180.748 125.348 165.657 131.887 153.479 141.854L100.877 89.252C97.6668 86.0418 92.4621 86.0418 89.252 89.252C86.0418 92.4621 86.0418 97.6668 89.252 100.877L141.854 153.479C131.887 165.657 125.348 180.748 123.707 197.28H49.3203C44.7805 197.28 41.0996 200.96 41.0996 205.5C41.0996 210.04 44.7805 213.72 49.3203 213.72H123.707C125.348 230.252 131.888 245.342 141.854 257.521L89.252 310.123C86.0418 313.333 86.0418 318.538 89.252 321.748C92.4621 324.958 97.6668 324.958 100.877 321.748L153.479 269.146C165.657 279.112 180.748 285.651 197.28 287.292V361.68C197.28 366.219 200.96 369.9 205.5 369.9C210.04 369.9 213.72 366.219 213.72 361.68V287.292C230.252 285.651 245.342 279.111 257.521 269.146L310.123 321.748C313.333 324.958 318.538 324.958 321.748 321.748C324.958 318.538 324.958 313.333 321.748 310.123L269.146 257.521C279.111 245.342 285.652 230.252 287.293 213.72H361.68C366.219 213.72 369.9 210.04 369.9 205.5C369.9 200.96 366.219 197.28 361.68 197.28H287.293C285.652 180.748 279.112 165.657 269.146 153.479L321.748 100.877C324.958 97.6668 324.958 92.4621 321.748 89.252C318.538 86.0418 313.333 86.0418 310.123 89.252L257.521 141.854C245.342 131.888 230.252 125.348 213.72 123.707V49.3203C213.72 44.7805 210.04 41.0996 205.5 41.0996Z" fill="#008080"/>
</svg>
